mtllib FAIREY-III-HELICE.mtl

#
# object Helice
#

v  -3.3245 15.5884 -1.8015
v  2.1311 41.1029 0.9285
v  3.4349 15.5884 1.5810
v  -1.2359 43.7001 -0.6702
v  -2.0207 41.1029 -1.1491
v  -3.4349 15.5884 -1.5809
v  2.0207 41.1029 1.1491
v  -2.1311 41.1029 -0.9285
v  1.2359 43.7001 0.6702
v  -1.2773 43.7001 -0.5874
v  3.3246 15.5884 1.8015
v  1.2773 43.7001 0.5874
v  1.0711 2.4876 0.0162
v  1.0711 2.4876 0.1526
v  0.0000 2.9313 0.2084
v  0.0000 2.9313 0.0592
v  1.0760 2.4856 0.0057
v  -0.7061 2.6388 0.0241
v  -1.0711 2.4876 -0.0162
v  -1.0711 2.4876 -0.1526
v  -0.7135 2.6357 0.1712
v  -1.0760 2.4856 -0.0056
v  -2.0728 2.0727 1.6931
v  2.0728 2.0727 1.6931
v  0.0000 2.9313 1.6931
v  0.0000 2.9313 -1.7246
v  0.9467 0.9467 -1.8745
v  0.0000 1.3388 -1.8745
v  0.9467 0.9467 1.8745
v  0.0000 1.3388 1.8745
v  1.3389 -0.0000 1.8745
v  2.9313 -0.0000 1.6931
v  2.0728 -2.0728 1.6931
v  2.9313 -0.0000 -1.7246
v  2.0728 -2.0728 -1.7246
v  1.3389 -0.0000 -1.8745
v  0.9467 -0.9468 -1.8745
v  0.0000 -2.9314 -1.7246
v  0.0000 -1.3389 -1.8745
v  0.0000 -1.3389 1.8745
v  0.9467 -0.9468 1.8745
v  -0.9467 -0.9468 -1.8745
v  -0.9467 -0.9468 1.8745
v  0.0000 -2.9314 1.6931
v  -2.0728 -2.0728 1.6931
v  -2.0207 -41.1029 1.1491
v  -3.4349 -15.5885 1.5810
v  -2.1311 -41.1029 0.9285
v  -1.2359 -43.7001 0.6702
v  -1.2773 -43.7001 0.5874
v  1.2773 -43.7001 -0.5874
v  1.2359 -43.7001 -0.6702
v  2.1311 -41.1029 -0.9285
v  2.0207 -41.1029 -1.1491
v  3.4349 -15.5885 -1.5809
v  3.3246 -15.5885 -1.8015
v  -3.3245 -15.5885 1.8015
v  1.0711 -2.4877 -0.0162
v  1.0711 -2.4877 -0.1525
v  -1.0711 -2.4877 0.0162
v  -0.7135 -2.6358 -0.1712
v  -1.0760 -2.4857 0.0057
v  -0.7061 -2.6389 -0.0241
v  -1.0711 -2.4877 0.1526
v  0.0000 -2.9314 -0.2084
v  0.0000 -2.9314 -0.0592
v  1.0760 -2.4857 -0.0056
v  -2.0728 -2.0728 -1.7246
v  -2.9313 -0.0000 1.6931
v  -2.9313 -0.0000 -1.7246
v  -1.3389 -0.0000 -1.8745
v  -2.0728 2.0727 -1.7246
v  -0.9467 0.9467 -1.8745
v  -1.3389 -0.0000 1.8745
v  -0.9467 0.9467 1.8745
v  2.0728 2.0727 -1.7246
# 76 vertices

vn 0.9333 -0.0407 -0.3567
vn 0.9338 0.0268 -0.3569
vn 0.9171 0.0062 -0.3985
vn 0.9300 0.0934 -0.3555
vn 0.9338 0.0230 -0.3569
vn -0.9336 0.0314 0.3568
vn -0.9338 0.0230 0.3569
vn -0.9338 0.0268 0.3569
vn -0.9300 0.0934 0.3555
vn 0.9835 -0.1542 0.0941
vn 0.9717 0.2170 0.0930
vn 0.9933 -0.0682 0.0934
vn 0.9277 0.3626 0.0888
vn 0.8556 0.5111 0.0819
vn 0.0000 1.0000 -0.0000
vn -0.8556 0.5111 -0.0819
vn -0.9277 0.3626 -0.0888
vn -0.9717 0.2170 -0.0930
vn -0.9835 -0.1542 -0.0941
vn 0.9452 -0.3195 0.0679
vn 0.9677 -0.2521 -0.0000
vn -0.9175 -0.0170 0.3973
vn 0.0000 -0.7059 0.7083
vn 0.0000 0.6895 -0.7243
vn 0.8304 0.1166 -0.5449
vn -0.9452 -0.3195 -0.0679
vn -0.9933 -0.0682 -0.0934
vn -0.9677 -0.2521 -0.0000
vn -0.8296 -0.1456 0.5391
vn -0.9307 0.0849 0.3557
vn -0.5962 0.8029 -0.0000
vn -0.2638 0.9646 -0.0000
vn 0.5962 0.8028 -0.0000
vn 0.0000 0.5977 -0.8017
vn 0.2791 0.4639 -0.8408
vn 0.0000 -1.0000 -0.0000
vn -0.5962 -0.8028 -0.0000
vn -1.0000 0.0000 -0.0000
vn 0.4873 0.3057 0.8180
vn 0.5118 0.0000 0.8591
vn 0.3772 -0.4567 0.8057
vn 1.0000 0.0000 -0.0000
vn 0.5962 -0.8028 -0.0000
vn 0.4417 0.0000 -0.8972
vn 0.3314 -0.3993 -0.8548
vn 0.2791 -0.4639 -0.8408
vn 0.0000 -0.5977 -0.8017
vn -0.5962 0.8028 -0.0000
vn 0.0000 -0.6699 0.7424
vn -0.3201 -0.5231 0.7899
vn -0.3772 -0.4567 0.8057
vn -0.9717 -0.2170 0.0930
vn -0.9835 0.1542 0.0941
vn -0.9277 -0.3626 0.0888
vn -0.8556 -0.5111 0.0819
vn 0.9277 -0.3626 -0.0888
vn 0.8556 -0.5111 -0.0819
vn 0.9717 -0.2170 -0.0930
vn 0.9835 0.1542 -0.0941
vn 0.9933 0.0682 -0.0934
vn -0.9338 -0.0268 -0.3569
vn -0.9300 -0.0934 -0.3555
vn 0.9338 -0.0268 0.3569
vn 0.9300 -0.0934 0.3555
vn -0.9338 -0.0230 -0.3569
vn -0.9336 -0.0314 -0.3568
vn -0.9175 0.0170 -0.3973
vn 0.9333 0.0407 0.3567
vn 0.9171 -0.0062 0.3985
vn 0.9452 0.3195 -0.0679
vn 0.9677 0.2521 -0.0000
vn -0.9452 0.3195 0.0679
vn -0.9933 0.0682 0.0934
vn -0.8296 0.1456 -0.5391
vn -0.9307 -0.0849 -0.3557
vn 0.8304 -0.1166 0.5449
vn -0.9677 0.2521 -0.0000
vn 0.0000 0.7059 -0.7083
vn 0.0000 -0.6895 0.7243
vn -0.5962 -0.8029 -0.0000
vn -0.2638 -0.9646 -0.0000
vn -0.3314 -0.3993 -0.8548
vn -0.4417 0.0000 -0.8972
vn -0.2791 -0.4639 -0.8408
vn -0.3314 0.3993 -0.8548
vn -0.2791 0.4639 -0.8408
vn -0.5118 0.0000 0.8591
vn -0.3772 0.4567 0.8057
vn 0.3201 -0.5231 0.7899
vn 0.3314 0.3993 -0.8548
vn 0.1802 0.6589 0.7303
vn -0.3201 0.5231 0.7899
vn -0.1802 0.6589 0.7303
vn 0.9360 -0.3405 0.0896
vn 0.9282 -0.1118 -0.3548
vn -0.9360 -0.3405 -0.0896
vn 0.2638 0.9646 -0.0000
vn 0.9338 -0.0230 0.3569
vn 0.9360 0.3405 -0.0896
vn -0.9360 0.3405 0.0896
vn 0.9282 0.1118 0.3548
vn 0.2638 -0.9646 -0.0000
# 102 vertex normals

vt 0.1330 0.6630 0.0000
vt 0.1442 0.7090 0.0000
vt 0.1469 0.6630 0.0000
vt 0.1373 0.7136 0.0000
vt 0.1357 0.7090 0.0000
vt 0.1328 0.6630 0.0000
vt 0.1440 0.7090 0.0000
vt 0.1355 0.7090 0.0000
vt 0.1424 0.7136 0.0000
vt 0.1372 0.7136 0.0000
vt 0.1467 0.6630 0.0000
vt 0.1425 0.7136 0.0000
vt 0.1421 0.6394 0.0000
vt 0.1399 0.6402 0.0000
vt 0.1384 0.6397 0.0000
vt 0.1377 0.6394 0.0000
vt 0.1376 0.6394 0.0000
vt 0.1356 0.6386 0.0000
vt 0.1441 0.6386 0.0000
vt 0.1418 0.6366 0.0000
vt 0.1399 0.6373 0.0000
vt 0.1426 0.6349 0.0000
vt 0.1459 0.6349 0.0000
vt 0.1441 0.6312 0.0000
vt 0.1418 0.6332 0.0000
vt 0.1399 0.6296 0.0000
vt 0.1399 0.6325 0.0000
vt 0.1379 0.6332 0.0000
vt 0.1356 0.6312 0.0000
vt 0.1357 0.5609 0.0000
vt 0.1328 0.6068 0.0000
vt 0.1355 0.5609 0.0000
vt 0.1373 0.5562 0.0000
vt 0.1372 0.5562 0.0000
vt 0.1425 0.5562 0.0000
vt 0.1424 0.5562 0.0000
vt 0.1442 0.5609 0.0000
vt 0.1440 0.5609 0.0000
vt 0.1469 0.6068 0.0000
vt 0.1467 0.6068 0.0000
vt 0.1330 0.6068 0.0000
vt 0.1421 0.6304 0.0000
vt 0.1377 0.6304 0.0000
vt 0.1384 0.6302 0.0000
vt 0.1376 0.6304 0.0000
vt 0.1384 0.6301 0.0000
vt 0.1338 0.6349 0.0000
vt 0.1371 0.6349 0.0000
vt 0.1379 0.6366 0.0000
# 49 texture coords

g Helice
usemtl Plane
f 1/1/1 2/2/2 3/3/3 
f 4/4/4 2/2/2 5/5/5 
f 6/6/6 7/7/7 8/8/8 
f 8/8/8 9/9/9 10/10/9 
f 3/3/10 7/7/11 11/11/12 
f 2/2/13 9/9/14 7/7/11 
f 12/12/15 10/10/15 9/9/15 
f 4/4/16 8/8/17 10/10/16 
f 5/5/18 6/6/19 8/8/17 
f 13/13/20 3/3/10 11/11/12 
f 14/13/21 13/13/20 11/11/12 
f 11/11/22 15/14/23 14/13/23 
f 16/14/24 3/3/3 17/13/24 
f 18/15/25 1/1/1 3/3/3 
f 19/16/26 6/6/19 1/1/27 
f 19/16/26 1/1/27 20/16/28 
f 21/15/29 6/6/6 22/17/30 
f 23/18/31 15/14/15 21/15/32 
f 24/19/33 15/14/15 25/14/15 
f 26/14/34 27/20/35 28/21/34 
f 28/21/36 29/20/37 30/21/36 
f 27/20/37 31/22/38 29/20/37 
f 24/19/39 31/22/40 32/23/40 
f 31/22/40 33/24/41 32/23/40 
f 34/23/42 33/24/43 35/24/43 
f 36/22/44 35/24/45 37/25/46 
f 37/25/46 38/26/47 39/27/47 
f 37/25/48 40/27/15 41/25/48 
f 40/27/15 42/28/33 43/28/33 
f 44/26/49 43/28/50 45/29/51 
f 46/30/52 47/31/53 48/32/54 
f 49/33/55 48/32/54 50/34/55 
f 51/35/36 50/34/36 52/36/36 
f 53/37/56 52/36/57 54/38/58 
f 55/39/59 54/38/58 56/40/60 
f 48/32/61 52/36/62 50/34/62 
f 53/37/63 49/33/64 51/35/64 
f 54/38/65 47/31/66 56/40/67 
f 57/41/68 53/37/63 55/39/69 
f 58/42/70 56/40/60 59/42/71 
f 58/42/70 55/39/59 56/40/60 
f 60/43/72 47/31/53 57/41/73 
f 61/44/74 47/31/66 62/45/75 
f 63/46/76 57/41/68 55/39/69 
f 64/43/77 60/43/72 57/41/73 
f 56/40/67 65/26/78 59/42/78 
f 66/26/79 55/39/69 67/42/79 
f 68/29/80 65/26/36 61/44/81 
f 68/29/80 69/47/38 70/47/38 
f 68/29/82 71/48/83 42/28/84 
f 71/48/83 72/18/85 73/49/86 
f 74/48/42 73/49/43 75/49/43 
f 74/48/87 23/18/88 69/47/87 
f 74/48/87 45/29/51 43/28/50 
f 44/26/49 41/25/89 40/27/49 
f 74/48/42 42/28/33 71/48/42 
f 42/28/84 38/26/47 68/29/82 
f 35/24/43 65/26/36 38/26/36 
f 37/25/48 31/22/38 36/22/38 
f 75/49/43 28/21/36 30/21/36 
f 36/22/44 76/19/90 34/23/44 
f 32/23/42 76/19/33 24/19/33 
f 25/14/91 29/20/91 24/19/91 
f 75/49/92 25/14/93 23/18/88 
f 70/47/38 23/18/31 72/18/48 
f 26/14/34 73/49/86 72/18/85 
f 2/2/2 1/1/1 5/5/5 
f 2/2/2 4/4/4 12/12/4 
f 7/7/7 6/6/6 11/11/22 
f 9/9/9 8/8/8 7/7/7 
f 7/7/11 3/3/10 2/2/13 
f 9/9/14 2/2/13 12/12/14 
f 10/10/15 12/12/15 4/4/15 
f 8/8/17 4/4/16 5/5/18 
f 6/6/19 5/5/18 1/1/27 
f 3/3/10 13/13/20 17/13/94 
f 15/14/23 11/11/22 21/15/29 
f 3/3/3 16/14/24 18/15/25 
f 1/1/1 18/15/25 20/16/95 
f 6/6/19 19/16/26 22/17/96 
f 6/6/6 21/15/29 11/11/22 
f 26/14/15 18/15/32 16/14/15 
f 26/14/15 20/16/32 18/15/32 
f 72/18/48 20/16/32 26/14/15 
f 23/18/31 20/16/32 72/18/48 
f 23/18/31 19/16/32 20/16/32 
f 23/18/31 22/17/32 19/16/32 
f 23/18/31 21/15/32 22/17/32 
f 15/14/15 23/18/31 25/14/15 
f 17/13/97 26/14/15 16/14/15 
f 17/13/97 76/19/33 26/14/15 
f 17/13/97 24/19/33 76/19/33 
f 13/13/97 24/19/33 17/13/97 
f 14/13/97 24/19/33 13/13/97 
f 15/14/15 24/19/33 14/13/97 
f 27/20/35 26/14/34 76/19/90 
f 29/20/37 28/21/36 27/20/37 
f 31/22/38 27/20/37 36/22/38 
f 31/22/40 24/19/39 29/20/39 
f 33/24/41 31/22/40 41/25/89 
f 33/24/43 34/23/42 32/23/42 
f 35/24/45 36/22/44 34/23/44 
f 38/26/47 37/25/46 35/24/45 
f 40/27/15 37/25/48 39/27/15 
f 42/28/33 40/27/15 39/27/15 
f 43/28/50 44/26/49 40/27/49 
f 47/31/53 46/30/52 57/41/73 
f 48/32/54 49/33/55 46/30/52 
f 50/34/36 51/35/36 49/33/36 
f 52/36/57 53/37/56 51/35/57 
f 54/38/58 55/39/59 53/37/56 
f 52/36/62 48/32/61 54/38/65 
f 49/33/64 53/37/63 46/30/98 
f 47/31/66 54/38/65 48/32/61 
f 53/37/63 57/41/68 46/30/98 
f 55/39/59 58/42/70 67/42/99 
f 47/31/53 60/43/72 62/45/100 
f 47/31/66 61/44/74 56/40/67 
f 57/41/68 63/46/76 64/43/101 
f 65/26/78 56/40/67 61/44/74 
f 55/39/69 66/26/79 63/46/76 
f 44/26/36 63/46/81 66/26/36 
f 44/26/36 64/43/81 63/46/81 
f 45/29/37 64/43/81 44/26/36 
f 68/29/80 64/43/81 45/29/37 
f 68/29/80 60/43/81 64/43/81 
f 68/29/80 62/45/81 60/43/81 
f 68/29/80 61/44/81 62/45/81 
f 65/26/36 68/29/80 38/26/36 
f 69/47/38 68/29/80 45/29/37 
f 71/48/83 68/29/82 70/47/83 
f 72/18/85 71/48/83 70/47/83 
f 73/49/43 74/48/42 71/48/42 
f 23/18/88 74/48/87 75/49/92 
f 45/29/51 74/48/87 69/47/87 
f 41/25/89 44/26/49 33/24/41 
f 42/28/33 74/48/42 43/28/33 
f 38/26/47 42/28/84 39/27/47 
f 67/42/102 44/26/36 66/26/36 
f 67/42/102 33/24/43 44/26/36 
f 67/42/102 35/24/43 33/24/43 
f 58/42/102 35/24/43 67/42/102 
f 59/42/102 35/24/43 58/42/102 
f 65/26/36 35/24/43 59/42/102 
f 31/22/38 37/25/48 41/25/48 
f 28/21/36 75/49/43 73/49/43 
f 76/19/90 36/22/44 27/20/35 
f 76/19/33 32/23/42 34/23/42 
f 29/20/91 25/14/91 30/21/91 
f 25/14/93 75/49/92 30/21/93 
f 23/18/31 70/47/38 69/47/38 
f 73/49/86 26/14/34 28/21/34 
# 152 faces

